<mxfile host="app.diagrams.net" agent="Mozilla/5.0 (Windows NT 10.0; Win64; x64) AppleWebKit/537.36 (KHTML, like Gecko) Chrome/133.0.0.0 Safari/537.36" version="26.0.15">
  <diagram id="qPh7KLMrR9lY4QPwgJeI" name="CU1">
    <mxGraphModel dx="2805" dy="1425" grid="1" gridSize="10" guides="1" tooltips="1" connect="1" arrows="1" fold="1" page="1" pageScale="1" pageWidth="827" pageHeight="1169" math="0" shadow="0">
      <root>
        <mxCell id="0" />
        <mxCell id="1" parent="0" />
        <mxCell id="Fh4gEGgheuUcvEkILHCw-1" value="Invitados" style="shape=umlActor;verticalLabelPosition=bottom;verticalAlign=top;html=1;outlineConnect=0;" vertex="1" parent="1">
          <mxGeometry x="50" y="88" width="30" height="60" as="geometry" />
        </mxCell>
        <mxCell id="Fh4gEGgheuUcvEkILHCw-2" value="Clientes" style="shape=umlActor;verticalLabelPosition=bottom;verticalAlign=top;html=1;outlineConnect=0;" vertex="1" parent="1">
          <mxGeometry x="50" y="208" width="30" height="60" as="geometry" />
        </mxCell>
        <mxCell id="Fh4gEGgheuUcvEkILHCw-3" value="Personas" style="shape=umlActor;verticalLabelPosition=bottom;verticalAlign=top;html=1;outlineConnect=0;" vertex="1" parent="1">
          <mxGeometry x="110" y="158" width="30" height="60" as="geometry" />
        </mxCell>
        <mxCell id="Fh4gEGgheuUcvEkILHCw-4" value="Login&amp;nbsp;" style="ellipse;whiteSpace=wrap;html=1;" vertex="1" parent="1">
          <mxGeometry x="220" y="198" width="160" height="50" as="geometry" />
        </mxCell>
        <mxCell id="Fh4gEGgheuUcvEkILHCw-5" value="Seleccionar Servicios" style="ellipse;whiteSpace=wrap;html=1;" vertex="1" parent="1">
          <mxGeometry x="470" y="128" width="160" height="50" as="geometry" />
        </mxCell>
        <mxCell id="Fh4gEGgheuUcvEkILHCw-6" value="Consultar disponibilidad" style="ellipse;whiteSpace=wrap;html=1;" vertex="1" parent="1">
          <mxGeometry x="220" y="138" width="160" height="50" as="geometry" />
        </mxCell>
        <mxCell id="Fh4gEGgheuUcvEkILHCw-7" value="" style="endArrow=none;html=1;rounded=0;entryX=0;entryY=0.5;entryDx=0;entryDy=0;" edge="1" parent="1" source="Fh4gEGgheuUcvEkILHCw-3" target="Fh4gEGgheuUcvEkILHCw-4">
          <mxGeometry width="50" height="50" relative="1" as="geometry">
            <mxPoint x="410" y="208" as="sourcePoint" />
            <mxPoint x="460" y="158" as="targetPoint" />
          </mxGeometry>
        </mxCell>
        <mxCell id="Fh4gEGgheuUcvEkILHCw-8" value="Visualizar los servicios disponibles" style="ellipse;whiteSpace=wrap;html=1;" vertex="1" parent="1">
          <mxGeometry x="230" y="78" width="160" height="50" as="geometry" />
        </mxCell>
        <mxCell id="Fh4gEGgheuUcvEkILHCw-9" value="Realizar Reserva" style="ellipse;whiteSpace=wrap;html=1;" vertex="1" parent="1">
          <mxGeometry x="690" y="88" width="160" height="50" as="geometry" />
        </mxCell>
        <mxCell id="Fh4gEGgheuUcvEkILHCw-10" value="Gestionar Servicios" style="ellipse;whiteSpace=wrap;html=1;" vertex="1" parent="1">
          <mxGeometry x="130" y="348" width="160" height="50" as="geometry" />
        </mxCell>
        <mxCell id="Fh4gEGgheuUcvEkILHCw-11" value="Confirmar Reserva" style="ellipse;whiteSpace=wrap;html=1;" vertex="1" parent="1">
          <mxGeometry x="930" y="198" width="160" height="50" as="geometry" />
        </mxCell>
        <mxCell id="Fh4gEGgheuUcvEkILHCw-12" value="Realizar Pago" style="ellipse;whiteSpace=wrap;html=1;" vertex="1" parent="1">
          <mxGeometry x="930" y="88" width="160" height="50" as="geometry" />
        </mxCell>
        <mxCell id="Fh4gEGgheuUcvEkILHCw-13" value="" style="endArrow=none;html=1;rounded=0;entryX=0;entryY=0.5;entryDx=0;entryDy=0;" edge="1" parent="1" source="Fh4gEGgheuUcvEkILHCw-3" target="Fh4gEGgheuUcvEkILHCw-6">
          <mxGeometry width="50" height="50" relative="1" as="geometry">
            <mxPoint x="140" y="174" as="sourcePoint" />
            <mxPoint x="210" y="228" as="targetPoint" />
          </mxGeometry>
        </mxCell>
        <mxCell id="Fh4gEGgheuUcvEkILHCw-14" value="" style="endArrow=none;html=1;rounded=0;entryX=0.023;entryY=0.789;entryDx=0;entryDy=0;entryPerimeter=0;" edge="1" parent="1" target="Fh4gEGgheuUcvEkILHCw-8">
          <mxGeometry width="50" height="50" relative="1" as="geometry">
            <mxPoint x="140" y="178" as="sourcePoint" />
            <mxPoint x="190" y="128" as="targetPoint" />
          </mxGeometry>
        </mxCell>
        <mxCell id="Fh4gEGgheuUcvEkILHCw-15" value="&amp;lt;&amp;lt;Incluide&amp;gt;&amp;gt;" style="html=1;verticalAlign=bottom;endArrow=open;dashed=1;endSize=8;curved=0;rounded=0;exitX=1;exitY=0.5;exitDx=0;exitDy=0;entryX=0;entryY=0.5;entryDx=0;entryDy=0;" edge="1" parent="1" source="Fh4gEGgheuUcvEkILHCw-5" target="Fh4gEGgheuUcvEkILHCw-9">
          <mxGeometry relative="1" as="geometry">
            <mxPoint x="500" y="278" as="sourcePoint" />
            <mxPoint x="420" y="278" as="targetPoint" />
          </mxGeometry>
        </mxCell>
        <mxCell id="Fh4gEGgheuUcvEkILHCw-16" value="&amp;lt;&amp;lt;Incluide&amp;gt;&amp;gt;" style="html=1;verticalAlign=bottom;endArrow=open;dashed=1;endSize=8;curved=0;rounded=0;exitX=1;exitY=0.5;exitDx=0;exitDy=0;entryX=0;entryY=0.5;entryDx=0;entryDy=0;" edge="1" parent="1" source="Fh4gEGgheuUcvEkILHCw-9" target="Fh4gEGgheuUcvEkILHCw-12">
          <mxGeometry relative="1" as="geometry">
            <mxPoint x="560" y="221.54999999999995" as="sourcePoint" />
            <mxPoint x="900" y="118" as="targetPoint" />
          </mxGeometry>
        </mxCell>
        <mxCell id="Fh4gEGgheuUcvEkILHCw-17" value="&amp;lt;&amp;lt;Extend&amp;gt;&amp;gt;" style="html=1;verticalAlign=bottom;endArrow=open;dashed=1;endSize=8;curved=0;rounded=0;exitX=0.008;exitY=0.634;exitDx=0;exitDy=0;entryX=1;entryY=0.5;entryDx=0;entryDy=0;exitPerimeter=0;" edge="1" parent="1" source="Fh4gEGgheuUcvEkILHCw-5" target="Fh4gEGgheuUcvEkILHCw-4">
          <mxGeometry x="0.0667" relative="1" as="geometry">
            <mxPoint x="520" y="158" as="sourcePoint" />
            <mxPoint x="520" y="233" as="targetPoint" />
            <mxPoint as="offset" />
          </mxGeometry>
        </mxCell>
        <mxCell id="Fh4gEGgheuUcvEkILHCw-18" value="&amp;lt;&amp;lt;Incluide&amp;gt;&amp;gt;" style="html=1;verticalAlign=bottom;endArrow=open;dashed=1;endSize=8;curved=0;rounded=0;entryX=0.5;entryY=0;entryDx=0;entryDy=0;exitX=0.5;exitY=1;exitDx=0;exitDy=0;" edge="1" parent="1" source="Fh4gEGgheuUcvEkILHCw-12" target="Fh4gEGgheuUcvEkILHCw-11">
          <mxGeometry x="0.0667" relative="1" as="geometry">
            <mxPoint x="920" y="199" as="sourcePoint" />
            <mxPoint x="700" y="313" as="targetPoint" />
            <mxPoint as="offset" />
          </mxGeometry>
        </mxCell>
        <mxCell id="Fh4gEGgheuUcvEkILHCw-19" value="" style="endArrow=none;html=1;rounded=0;exitX=1;exitY=0.5;exitDx=0;exitDy=0;entryX=0;entryY=0.5;entryDx=0;entryDy=0;" edge="1" parent="1" source="Fh4gEGgheuUcvEkILHCw-8" target="Fh4gEGgheuUcvEkILHCw-5">
          <mxGeometry width="50" height="50" relative="1" as="geometry">
            <mxPoint x="630" y="158" as="sourcePoint" />
            <mxPoint x="460" y="138" as="targetPoint" />
          </mxGeometry>
        </mxCell>
        <mxCell id="Fh4gEGgheuUcvEkILHCw-20" value="" style="endArrow=none;html=1;rounded=0;" edge="1" parent="1" source="Fh4gEGgheuUcvEkILHCw-2" target="Fh4gEGgheuUcvEkILHCw-3">
          <mxGeometry width="50" height="50" relative="1" as="geometry">
            <mxPoint x="290" y="228" as="sourcePoint" />
            <mxPoint x="340" y="178" as="targetPoint" />
          </mxGeometry>
        </mxCell>
        <mxCell id="Fh4gEGgheuUcvEkILHCw-21" value="" style="endArrow=none;html=1;rounded=0;" edge="1" parent="1" source="Fh4gEGgheuUcvEkILHCw-1" target="Fh4gEGgheuUcvEkILHCw-3">
          <mxGeometry width="50" height="50" relative="1" as="geometry">
            <mxPoint x="90" y="236" as="sourcePoint" />
            <mxPoint x="100" y="178" as="targetPoint" />
          </mxGeometry>
        </mxCell>
        <mxCell id="Fh4gEGgheuUcvEkILHCw-22" value="Admin" style="shape=umlActor;verticalLabelPosition=bottom;verticalAlign=top;html=1;outlineConnect=0;" vertex="1" parent="1">
          <mxGeometry x="50" y="358" width="30" height="60" as="geometry" />
        </mxCell>
        <mxCell id="Fh4gEGgheuUcvEkILHCw-23" value="Gestionar Personas" style="ellipse;whiteSpace=wrap;html=1;" vertex="1" parent="1">
          <mxGeometry x="130" y="408" width="160" height="50" as="geometry" />
        </mxCell>
        <mxCell id="Fh4gEGgheuUcvEkILHCw-24" value="" style="endArrow=none;html=1;rounded=0;entryX=0;entryY=0.5;entryDx=0;entryDy=0;" edge="1" parent="1" source="Fh4gEGgheuUcvEkILHCw-22" target="Fh4gEGgheuUcvEkILHCw-10">
          <mxGeometry width="50" height="50" relative="1" as="geometry">
            <mxPoint x="360" y="328" as="sourcePoint" />
            <mxPoint x="410" y="278" as="targetPoint" />
          </mxGeometry>
        </mxCell>
        <mxCell id="Fh4gEGgheuUcvEkILHCw-25" value="" style="endArrow=none;html=1;rounded=0;entryX=0;entryY=0.5;entryDx=0;entryDy=0;" edge="1" parent="1" source="Fh4gEGgheuUcvEkILHCw-22" target="Fh4gEGgheuUcvEkILHCw-23">
          <mxGeometry width="50" height="50" relative="1" as="geometry">
            <mxPoint x="360" y="328" as="sourcePoint" />
            <mxPoint x="410" y="278" as="targetPoint" />
          </mxGeometry>
        </mxCell>
        <mxCell id="Fh4gEGgheuUcvEkILHCw-26" value="Visualizar las Reservas" style="ellipse;whiteSpace=wrap;html=1;" vertex="1" parent="1">
          <mxGeometry x="440" y="308" width="160" height="50" as="geometry" />
        </mxCell>
        <mxCell id="Fh4gEGgheuUcvEkILHCw-27" value="Recepcionista" style="shape=umlActor;verticalLabelPosition=bottom;verticalAlign=top;html=1;outlineConnect=0;" vertex="1" parent="1">
          <mxGeometry x="370" y="358" width="30" height="60" as="geometry" />
        </mxCell>
        <mxCell id="Fh4gEGgheuUcvEkILHCw-28" value="Registro de Ingreso de huespedes" style="ellipse;whiteSpace=wrap;html=1;" vertex="1" parent="1">
          <mxGeometry x="440" y="368" width="160" height="50" as="geometry" />
        </mxCell>
        <mxCell id="Fh4gEGgheuUcvEkILHCw-29" value="" style="endArrow=none;html=1;rounded=0;entryX=0;entryY=0.5;entryDx=0;entryDy=0;" edge="1" parent="1" source="Fh4gEGgheuUcvEkILHCw-27" target="Fh4gEGgheuUcvEkILHCw-26">
          <mxGeometry width="50" height="50" relative="1" as="geometry">
            <mxPoint x="680" y="328" as="sourcePoint" />
            <mxPoint x="730" y="278" as="targetPoint" />
          </mxGeometry>
        </mxCell>
        <mxCell id="Fh4gEGgheuUcvEkILHCw-30" value="" style="endArrow=none;html=1;rounded=0;entryX=0;entryY=0.5;entryDx=0;entryDy=0;" edge="1" parent="1" source="Fh4gEGgheuUcvEkILHCw-27" target="Fh4gEGgheuUcvEkILHCw-28">
          <mxGeometry width="50" height="50" relative="1" as="geometry">
            <mxPoint x="680" y="328" as="sourcePoint" />
            <mxPoint x="730" y="278" as="targetPoint" />
          </mxGeometry>
        </mxCell>
        <mxCell id="Fh4gEGgheuUcvEkILHCw-31" value="" style="edgeStyle=orthogonalEdgeStyle;rounded=0;orthogonalLoop=1;jettySize=auto;html=1;" edge="1" parent="1" source="Fh4gEGgheuUcvEkILHCw-32" target="Fh4gEGgheuUcvEkILHCw-34">
          <mxGeometry relative="1" as="geometry" />
        </mxCell>
        <mxCell id="Fh4gEGgheuUcvEkILHCw-32" value="Registro de salida de huespedes" style="ellipse;whiteSpace=wrap;html=1;" vertex="1" parent="1">
          <mxGeometry x="720" y="368" width="160" height="50" as="geometry" />
        </mxCell>
        <mxCell id="Fh4gEGgheuUcvEkILHCw-33" value="&amp;lt;&amp;lt;Incluide&amp;gt;&amp;gt;" style="html=1;verticalAlign=bottom;endArrow=open;dashed=1;endSize=8;curved=0;rounded=0;entryX=0;entryY=0.5;entryDx=0;entryDy=0;exitX=1;exitY=0.5;exitDx=0;exitDy=0;" edge="1" parent="1" source="Fh4gEGgheuUcvEkILHCw-28" target="Fh4gEGgheuUcvEkILHCw-32">
          <mxGeometry x="0.0667" relative="1" as="geometry">
            <mxPoint x="1020" y="148" as="sourcePoint" />
            <mxPoint x="1020" y="208" as="targetPoint" />
            <mxPoint as="offset" />
          </mxGeometry>
        </mxCell>
        <mxCell id="Fh4gEGgheuUcvEkILHCw-34" value="Facturación" style="ellipse;whiteSpace=wrap;html=1;" vertex="1" parent="1">
          <mxGeometry x="960" y="368" width="160" height="50" as="geometry" />
        </mxCell>
        <mxCell id="Fh4gEGgheuUcvEkILHCw-35" value="&amp;lt;&amp;lt;Incluide&amp;gt;&amp;gt;" style="html=1;verticalAlign=bottom;endArrow=open;dashed=1;endSize=8;curved=0;rounded=0;entryX=0;entryY=0.5;entryDx=0;entryDy=0;exitX=1;exitY=0.5;exitDx=0;exitDy=0;" edge="1" parent="1" target="Fh4gEGgheuUcvEkILHCw-34">
          <mxGeometry x="0.0667" relative="1" as="geometry">
            <mxPoint x="880" y="393" as="sourcePoint" />
            <mxPoint x="1300" y="208" as="targetPoint" />
            <mxPoint as="offset" />
          </mxGeometry>
        </mxCell>
        <mxCell id="Fh4gEGgheuUcvEkILHCw-36" value="Gerente" style="shape=umlActor;verticalLabelPosition=bottom;verticalAlign=top;html=1;outlineConnect=0;" vertex="1" parent="1">
          <mxGeometry x="50" y="568" width="30" height="60" as="geometry" />
        </mxCell>
        <mxCell id="Fh4gEGgheuUcvEkILHCw-37" value="Realizar Promo" style="ellipse;whiteSpace=wrap;html=1;" vertex="1" parent="1">
          <mxGeometry x="130" y="588" width="160" height="50" as="geometry" />
        </mxCell>
        <mxCell id="Fh4gEGgheuUcvEkILHCw-38" value="Realizar Reporte" style="ellipse;whiteSpace=wrap;html=1;" vertex="1" parent="1">
          <mxGeometry x="130" y="468" width="160" height="50" as="geometry" />
        </mxCell>
        <mxCell id="Fh4gEGgheuUcvEkILHCw-39" value="" style="endArrow=none;html=1;rounded=0;entryX=0;entryY=0.5;entryDx=0;entryDy=0;exitX=1;exitY=0.667;exitDx=0;exitDy=0;exitPerimeter=0;" edge="1" parent="1" source="Fh4gEGgheuUcvEkILHCw-22" target="Fh4gEGgheuUcvEkILHCw-38">
          <mxGeometry width="50" height="50" relative="1" as="geometry">
            <mxPoint x="90" y="408" as="sourcePoint" />
            <mxPoint x="140" y="443" as="targetPoint" />
          </mxGeometry>
        </mxCell>
        <mxCell id="Fh4gEGgheuUcvEkILHCw-40" value="&amp;lt;&amp;lt;Incluide&amp;gt;&amp;gt;" style="html=1;verticalAlign=bottom;endArrow=open;dashed=1;endSize=8;curved=0;rounded=0;entryX=0.5;entryY=0;entryDx=0;entryDy=0;exitX=0.5;exitY=1;exitDx=0;exitDy=0;" edge="1" parent="1" source="Fh4gEGgheuUcvEkILHCw-38" target="Fh4gEGgheuUcvEkILHCw-37">
          <mxGeometry x="0.0667" relative="1" as="geometry">
            <mxPoint x="890" y="403" as="sourcePoint" />
            <mxPoint x="970" y="403" as="targetPoint" />
            <mxPoint as="offset" />
          </mxGeometry>
        </mxCell>
        <mxCell id="Fh4gEGgheuUcvEkILHCw-41" value="" style="endArrow=none;html=1;rounded=0;entryX=0;entryY=0.5;entryDx=0;entryDy=0;" edge="1" parent="1" source="Fh4gEGgheuUcvEkILHCw-36" target="Fh4gEGgheuUcvEkILHCw-37">
          <mxGeometry width="50" height="50" relative="1" as="geometry">
            <mxPoint x="90" y="395" as="sourcePoint" />
            <mxPoint x="140" y="383" as="targetPoint" />
          </mxGeometry>
        </mxCell>
      </root>
    </mxGraphModel>
  </diagram>
</mxfile>
